#!OML:ASF H:\BabyWalks\Project 1\Capture day 1\Session 1\baby.ASF
:FULLY-SPECIFIED
:DEGREES
190
root -14.2956 15.9777 -2.35426 99.8375 -85.5791 -116.219
lowerback 12.8437 -0.172811 1.02573
upperback 3.70675 -0.215521 1.03686
thorax -3.30722 -0.179975 0.539326
lowerneck -6.56357 -0.0883283 4.69312
upperneck 4.7401 -0.270128 -4.56557
head 2.67777 -0.200165 -2.33487
rclavicle -1.73937e-016 -5.56597e-015
rhumerus 25.6722 -3.16215 -66.2637
rradius 71.0732
rwrist 20.9899
rhand 23.881 -23.5882
rfingers 7.12502
rthumb 48.1319 -45.7393
lclavicle -1.73937e-016 -5.56597e-015
lhumerus 25.5853 -1.85227 62.614
lradius 75.4155
lwrist -6.23322
lhand 24.7049 30.9494
lfingers 7.12502
lthumb 48.8901 52.736
rfemur 0.47607 -13.1726 11.877
rtibia 54.9305
rfoot -32.5249 -9.94791
rtoes -13.2046
lfemur -1.02631 11.9943 1.19505
ltibia 53.5928
lfoot -35.8046 -8.56516
ltoes -13.4354
191
root -14.2971 15.9764 -2.35929 99.0594 -85.488 -115.488
lowerback 12.8363 -0.190402 1.07988
upperback 3.68459 -0.229435 1.07639
thorax -3.32629 -0.186861 0.552207
lowerneck -6.68001 -0.0589915 4.60319
upperneck 4.94036 -0.227898 -4.47883
head 2.76822 -0.178797 -2.29185
rclavicle -3.54085e-015 -1.0138e-014
rhumerus 25.5819 -3.1249 -66.2763
rradius 70.8642
rwrist 21.033
rhand 23.9584 -23.5811
rfingers 7.12502
rthumb 48.2032 -45.6986
lclavicle -3.54085e-015 -1.0138e-014
lhumerus 25.5239 -1.84643 62.6592
lradius 75.272
lwrist -6.41869
lhand 24.8035 30.8921
lfingers 7.12502
lthumb 48.9807 52.6341
rfemur 0.543988 -13.2382 11.9817
rtibia 54.9245
rfoot -32.5255 -9.9557
rtoes -13.1798
lfemur -0.986683 11.9817 1.35982
ltibia 53.5821
lfoot -35.7921 -8.67732
ltoes -13.2607
192
root -14.3005 15.9773 -2.36322 98.3498 -85.5373 -114.832
lowerback 12.79 -0.205578 1.01716
upperback 3.6617 -0.256537 1.0688
thorax -3.32486 -0.199377 0.583593
lowerneck -6.74371 -0.0528373 4.5272
upperneck 5.11833 -0.214975 -4.41787
head 2.84018 -0.172179 -2.2603
rclavicle -8.82107e-016 2.18663e-015
rhumerus 25.4181 -3.10776 -66.3125
rradius 70.6956
rwrist 21.0762
rhand 23.9723 -23.5796
rfingers 7.12502
rthumb 48.216 -45.691
lclavicle -8.82107e-016 2.18663e-015
lhumerus 25.4534 -1.88228 62.6481
lradius 75.126
lwrist -6.54065
lhand 24.8823 30.8218
lfingers 7.12502
lthumb 49.0531 52.5279
rfemur 0.651369 -13.343 11.8986
rtibia 54.9066
rfoot -32.5512 -9.91134
rtoes -13.2404
lfemur -0.919179 11.953 1.35006
ltibia 53.5316
lfoot -35.7885 -8.69276
ltoes -13.3384
193
root -14.3035 15.9782 -2.36338 98.1035 -85.7018 -114.593
lowerback 12.729 -0.20118 0.893931
upperback 3.62319 -0.265675 1.01829
thorax -3.3318 -0.202146 0.60153
lowerneck -6.73747 -0.0837299 4.67648
upperneck 5.17281 -0.257349 -4.60426
head 2.85797 -0.1967 -2.35363
rclavicle -1.19022e-014 1.35174e-014
rhumerus 25.2528 -3.18591 -66.368
rradius 70.521
rwrist 21.1431
rhand 23.9453 -23.5801
rfingers 7.12502
rthumb 48.1911 -45.7033
lclavicle -1.19022e-014 1.35174e-014
lhumerus 25.4169 -1.93941 62.6502
lradius 74.9516
lwrist -6.66658
lhand 24.8607 30.8249
lfingers 7.12502
lthumb 49.0332 52.5409
rfemur 0.700039 -13.4831 11.642
rtibia 54.9006
rfoot -32.58 -9.7506
rtoes -13.1375
lfemur -0.888215 11.8747 1.13223
ltibia 53.4635
lfoot -35.7649 -8.62063
ltoes -13.2343
194
root -14.3075 15.9828 -2.36519 97.3701 -85.8935 -113.862
lowerback 12.627 -0.22044 0.706941
upperback 3.58464 -0.314158 0.970328
thorax -3.31589 -0.224033 0.66376
lowerneck -6.76694 -0.103033 4.71404
upperneck 5.30123 -0.281969 -4.65372
head 2.9066 -0.210092 -2.38099
rclavicle 6.31141e-015 -1.72943e-014
rhumerus 25.0966 -3.25583 -66.4874
rradius 70.3421
rwrist 21.2457
rhand 23.902 -23.5223
rfingers 7.12502
rthumb 48.1512 -45.6642
lclavicle 6.31141e-015 -1.72943e-014
lhumerus 25.3501 -1.93282 62.6482
lradius 74.762
lwrist -6.76532
lhand 24.8343 30.8804
lfingers 7.12502
lthumb 49.009 52.6084
rfemur 0.778685 -13.647 11.3764
rtibia 54.8686
rfoot -32.582 -9.65122
rtoes -13.1447
lfemur -0.847113 11.8694 0.942658
ltibia 53.3484
lfoot -35.7287 -8.67213
ltoes -13.266
195
root -14.3128 15.9845 -2.37096 97.1191 -85.9493 -113.641
lowerback 12.5583 -0.209078 0.614142
upperback 3.55442 -0.309657 0.949804
thorax -3.30977 -0.220433 0.693601
lowerneck -6.92684 -0.0916394 4.58719
upperneck 5.52712 -0.264352 -4.52231
head 3.01303 -0.200567 -2.31802
rclavicle 2.39784e-015 4.17448e-015
rhumerus 24.9316 -3.42533 -66.6201
rradius 70.1695
rwrist 21.2946
rhand 23.9143 -23.4506
rfingers 7.12502
rthumb 48.1626 -45.5872
lclavicle 2.39784e-015 4.17448e-015
lhumerus 25.3136 -1.96914 62.6006
lradius 74.5891
lwrist -6.85507
lhand 24.9473 30.8772
lfingers 7.12502
lthumb 49.1128 52.5536
rfemur 0.863499 -13.7565 11.275
rtibia 54.8301
rfoot -32.582 -9.56926
rtoes -13.1695
lfemur -0.756928 11.9093 0.944706
ltibia 53.234
lfoot -35.6873 -8.7758
ltoes -13.2436
196
root -14.3184 15.9917 -2.37434 97.3336 -85.9729 -113.869
lowerback 12.4656 -0.191629 0.588687
upperback 3.50969 -0.288028 0.927217
thorax -3.30616 -0.208192 0.680621
lowerneck -6.73852 -0.107948 4.70361
upperneck 5.46705 -0.286053 -4.60438
head 2.95696 -0.210091 -2.36488
rclavicle -2.36057e-016 -1.05356e-014
rhumerus 24.6995 -3.58291 -66.7204
rradius 70.0652
rwrist 21.3506
rhand 23.7999 -23.5262
rfingers 7.12502
rthumb 48.0571 -45.7123
lclavicle -2.36057e-016 -1.05356e-014
lhumerus 25.2449 -1.99298 62.5804
lradius 74.4123
lwrist -6.97019
lhand 25.0869 30.8219
lfingers 7.12502
lthumb 49.2409 52.4343
rfemur 0.941815 -13.8055 11.2255
rtibia 54.7398
rfoot -32.5648 -9.52747
rtoes -13.1578
lfemur -0.642204 12.0001 0.973107
ltibia 53.0813
lfoot -35.6518 -8.85055
ltoes -13.282
197
root -14.3238 15.9985 -2.37913 97.8382 -85.9761 -114.37
lowerback 12.3469 -0.175069 0.562049
upperback 3.46221 -0.267517 0.908758
thorax -3.29115 -0.196389 0.672641
lowerneck -6.58268 -0.121394 4.70258
upperneck 5.43021 -0.300303 -4.5801
head 2.91375 -0.214895 -2.35435
rclavicle 4.68386e-015 -1.13307e-014
rhumerus 24.5134 -3.8073 -66.8944
rradius 69.9097
rwrist 21.4652
rhand 23.8229 -23.4465
rfingers 7.12502
rthumb 48.0783 -45.6227
lclavicle 4.68386e-015 -1.13307e-014
lhumerus 25.1593 -1.97747 62.5429
lradius 74.2466
lwrist -7.05357
lhand 25.16 30.8809
lfingers 7.12502
lthumb 49.308 52.4595
rfemur 0.989503 -13.8214 11.2204
rtibia 54.6321
rfoot -32.5135 -9.51011
rtoes -13.1852
lfemur -0.538709 12.0906 1.01784
ltibia 52.925
lfoot -35.5696 -8.97946
ltoes -13.1263
198
root -14.3308 16.0081 -2.38363 98.0525 -85.9634 -114.642
lowerback 12.3153 -0.161674 0.556103
upperback 3.41476 -0.248448 0.891985
thorax -3.32362 -0.18577 0.655658
lowerneck -6.38325 -0.157623 4.93269
upperneck 5.3238 -0.350691 -4.79385
head 2.84033 -0.240794 -2.46729
rclavicle 8.94531e-016 -1.11319e-014
rhumerus 24.2689 -3.99875 -67.0061
rradius 69.8222
rwrist 21.5643
rhand 23.7214 -23.5355
rfingers 7.12502
rthumb 47.9847 -45.7554
lclavicle 8.94531e-016 -1.11319e-014
lhumerus 25.0323 -1.94947 62.5214
lradius 74.2037
lwrist -7.0485
lhand 25.3172 31.0149
lfingers 7.12502
lthumb 49.4522 52.5206
rfemur 1.13849 -13.767 11.2534
rtibia 54.4899
rfoot -32.4698 -9.54074
rtoes -13.1712
lfemur -0.35235 12.1081 1.07684
ltibia 52.7392
lfoot -35.5252 -9.00445
ltoes -13.191
199
root -14.3373 16.0172 -2.38599 98.6316 -85.9496 -115.234
lowerback 12.2248 -0.140303 0.595275
upperback 3.38847 -0.215066 0.861964
thorax -3.30208 -0.168352 0.596818
lowerneck -6.6976 -0.109934 4.5894
upperneck 5.72189 -0.284419 -4.40476
head 3.03375 -0.203796 -2.27964
rclavicle -4.47266e-016 1.98785e-015
rhumerus 24.1109 -4.28381 -67.1478
rradius 69.7019
rwrist 21.6882
rhand 23.7113 -23.5556
rfingers 7.12502
rthumb 47.9754 -45.7799
lclavicle -4.47266e-016 1.98785e-015
lhumerus 24.9983 -1.88788 62.4963
lradius 74.0439
lwrist -7.04439
lhand 25.4039 31.0643
lfingers 7.12502
lthumb 49.5317 52.5295
rfemur 1.229 -13.7446 11.2589
rtibia 54.361
rfoot -32.4284 -9.51199
rtoes -13.0942
lfemur -0.204964 12.1729 1.11862
ltibia 52.5564
lfoot -35.4556 -9.07485
ltoes -13.0872
200
root -14.3425 16.0246 -2.38697 99.8522 -85.953 -116.439
lowerback 12.1272 -0.111688 0.602319
upperback 3.31783 -0.174045 0.820462
thorax -3.32289 -0.146155 0.54323
lowerneck -6.65709 -0.0698035 4.51064
upperneck 5.86434 -0.22956 -4.25042
head 3.07571 -0.172065 -2.21214
rclavicle -9.44227e-016 -4.17448e-015
rhumerus 23.876 -4.54816 -67.3024
rradius 69.5816
rwrist 21.8228
rhand 23.6039 -23.4761
rfingers 7.12502
rthumb 47.8764 -45.7464
lclavicle -9.44227e-016 -4.17448e-015
lhumerus 24.8539 -1.85725 62.4109
lradius 73.9588
lwrist -6.92496
lhand 25.3726 31.0838
lfingers 7.12502
lthumb 49.503 52.5636
rfemur 1.2679 -13.7224 11.228
rtibia 54.2347
rfoot -32.3766 -9.47237
rtoes -13.1321
lfemur -0.0714173 12.2652 1.1164
ltibia 52.3635
lfoot -35.3889 -9.11091
ltoes -13.0161
201
root -14.3454 16.0299 -2.38079 100.153 -86.1565 -116.718
lowerback 12.0682 -0.107688 0.540854
upperback 3.25066 -0.176244 0.711755
thorax -3.36094 -0.145106 0.464922
lowerneck -6.68527 -0.123394 4.53269
upperneck 5.93467 -0.302655 -4.25962
head 3.10172 -0.208337 -2.22416
rclavicle 3.05631e-015 8.34896e-015
rhumerus 23.7 -4.81262 -67.3732
rradius 69.4608
rwrist 21.8935
rhand 23.5179 -23.565
rfingers 7.12502
rthumb 47.797 -45.872
lclavicle 3.05631e-015 8.34896e-015
lhumerus 24.7273 -1.80063 62.3568
lradius 73.9157
lwrist -6.89332
lhand 25.4251 31.2262
lfingers 7.12502
lthumb 49.5512 52.6815
rfemur 1.34406 -13.897 10.8768
rtibia 54.1198
rfoot -32.3262 -9.2695
rtoes -13.1205
lfemur 0.00829733 12.2415 0.833374
ltibia 52.1655
lfoot -35.2992 -9.04241
ltoes -13.0726
